<mxfile host="Electron" modified="2023-11-16T23:28:27.510Z" agent="Mozilla/5.0 (Windows NT 10.0; Win64; x64) AppleWebKit/537.36 (KHTML, like Gecko) draw.io/22.1.2 Chrome/114.0.5735.289 Electron/25.9.4 Safari/537.36" etag="vqBybY0H-o3ZewAXijcE" version="22.1.2" type="device">
  <diagram name="PÃ¡gina-1" id="axdBQE7AyFfKN9xvFQSi">
    <mxGraphModel dx="880" dy="524" grid="1" gridSize="10" guides="1" tooltips="1" connect="1" arrows="1" fold="1" page="1" pageScale="1" pageWidth="827" pageHeight="1169" math="1" shadow="0">
      <root>
        <mxCell id="0" />
        <mxCell id="1" parent="0" />
        <mxCell id="eQ8VGkHf3xhEzbvVZcIo-10" style="edgeStyle=orthogonalEdgeStyle;rounded=0;orthogonalLoop=1;jettySize=auto;html=1;exitX=0.5;exitY=1;exitDx=0;exitDy=0;exitPerimeter=0;" edge="1" parent="1" source="eQ8VGkHf3xhEzbvVZcIo-3" target="eQ8VGkHf3xhEzbvVZcIo-4">
          <mxGeometry relative="1" as="geometry" />
        </mxCell>
        <mxCell id="eQ8VGkHf3xhEzbvVZcIo-3" value="TareaLCD_Est1" style="strokeWidth=2;html=1;shape=mxgraph.flowchart.terminator;whiteSpace=wrap;" vertex="1" parent="1">
          <mxGeometry x="363" y="20" width="100" height="60" as="geometry" />
        </mxCell>
        <mxCell id="eQ8VGkHf3xhEzbvVZcIo-9" style="edgeStyle=orthogonalEdgeStyle;rounded=0;orthogonalLoop=1;jettySize=auto;html=1;exitX=0.5;exitY=1;exitDx=0;exitDy=0;entryX=0.5;entryY=0;entryDx=0;entryDy=0;" edge="1" parent="1" source="eQ8VGkHf3xhEzbvVZcIo-4" target="eQ8VGkHf3xhEzbvVZcIo-5">
          <mxGeometry relative="1" as="geometry" />
        </mxCell>
        <mxCell id="eQ8VGkHf3xhEzbvVZcIo-4" value="FinSendLCD \(\leftarrow\) 0&lt;br&gt;RS \(\leftarrow\) 0" style="rounded=0;whiteSpace=wrap;html=1;" vertex="1" parent="1">
          <mxGeometry x="353" y="110" width="120" height="60" as="geometry" />
        </mxCell>
        <mxCell id="eQ8VGkHf3xhEzbvVZcIo-7" style="edgeStyle=orthogonalEdgeStyle;rounded=0;orthogonalLoop=1;jettySize=auto;html=1;exitX=0;exitY=0.5;exitDx=0;exitDy=0;" edge="1" parent="1" source="eQ8VGkHf3xhEzbvVZcIo-5" target="eQ8VGkHf3xhEzbvVZcIo-6">
          <mxGeometry relative="1" as="geometry" />
        </mxCell>
        <mxCell id="eQ8VGkHf3xhEzbvVZcIo-8" value="NO" style="edgeLabel;html=1;align=center;verticalAlign=middle;resizable=0;points=[];" vertex="1" connectable="0" parent="eQ8VGkHf3xhEzbvVZcIo-7">
          <mxGeometry x="-0.5118" y="2" relative="1" as="geometry">
            <mxPoint as="offset" />
          </mxGeometry>
        </mxCell>
        <mxCell id="eQ8VGkHf3xhEzbvVZcIo-12" style="edgeStyle=orthogonalEdgeStyle;rounded=0;orthogonalLoop=1;jettySize=auto;html=1;exitX=1;exitY=0.5;exitDx=0;exitDy=0;entryX=0.5;entryY=0;entryDx=0;entryDy=0;" edge="1" parent="1" source="eQ8VGkHf3xhEzbvVZcIo-5" target="eQ8VGkHf3xhEzbvVZcIo-11">
          <mxGeometry relative="1" as="geometry" />
        </mxCell>
        <mxCell id="eQ8VGkHf3xhEzbvVZcIo-5" value="Second_Line&amp;nbsp; = 1" style="shape=hexagon;perimeter=hexagonPerimeter2;whiteSpace=wrap;html=1;fixedSize=1;" vertex="1" parent="1">
          <mxGeometry x="348" y="200" width="130" height="50" as="geometry" />
        </mxCell>
        <mxCell id="eQ8VGkHf3xhEzbvVZcIo-15" style="edgeStyle=orthogonalEdgeStyle;rounded=0;orthogonalLoop=1;jettySize=auto;html=1;exitX=1;exitY=0.5;exitDx=0;exitDy=0;entryX=0;entryY=0.5;entryDx=0;entryDy=0;" edge="1" parent="1" source="eQ8VGkHf3xhEzbvVZcIo-6" target="eQ8VGkHf3xhEzbvVZcIo-14">
          <mxGeometry relative="1" as="geometry" />
        </mxCell>
        <mxCell id="eQ8VGkHf3xhEzbvVZcIo-6" value="CharLCD \(\leftarrow\) ADD_L1&lt;br&gt;Punt_LCD \(\leftarrow\) Msg_L1" style="rounded=0;whiteSpace=wrap;html=1;" vertex="1" parent="1">
          <mxGeometry x="69" y="270" width="140" height="60" as="geometry" />
        </mxCell>
        <mxCell id="eQ8VGkHf3xhEzbvVZcIo-16" style="edgeStyle=orthogonalEdgeStyle;rounded=0;orthogonalLoop=1;jettySize=auto;html=1;exitX=0;exitY=0.5;exitDx=0;exitDy=0;entryX=1;entryY=0.5;entryDx=0;entryDy=0;" edge="1" parent="1" source="eQ8VGkHf3xhEzbvVZcIo-11" target="eQ8VGkHf3xhEzbvVZcIo-14">
          <mxGeometry relative="1" as="geometry" />
        </mxCell>
        <mxCell id="eQ8VGkHf3xhEzbvVZcIo-11" value="CharLCD \(\leftarrow\) ADD_L2&lt;br&gt;Punt_LCD \(\leftarrow\) Msg_L2" style="rounded=0;whiteSpace=wrap;html=1;" vertex="1" parent="1">
          <mxGeometry x="619" y="270" width="140" height="60" as="geometry" />
        </mxCell>
        <mxCell id="eQ8VGkHf3xhEzbvVZcIo-19" style="edgeStyle=orthogonalEdgeStyle;rounded=0;orthogonalLoop=1;jettySize=auto;html=1;exitX=0.5;exitY=1;exitDx=0;exitDy=0;entryX=0.5;entryY=0;entryDx=0;entryDy=0;" edge="1" parent="1" source="eQ8VGkHf3xhEzbvVZcIo-14" target="eQ8VGkHf3xhEzbvVZcIo-18">
          <mxGeometry relative="1" as="geometry" />
        </mxCell>
        <mxCell id="eQ8VGkHf3xhEzbvVZcIo-14" value="" style="ellipse;whiteSpace=wrap;html=1;aspect=fixed;" vertex="1" parent="1">
          <mxGeometry x="398" y="285" width="30" height="30" as="geometry" />
        </mxCell>
        <mxCell id="eQ8VGkHf3xhEzbvVZcIo-21" value="" style="edgeStyle=orthogonalEdgeStyle;rounded=0;orthogonalLoop=1;jettySize=auto;html=1;" edge="1" parent="1" source="eQ8VGkHf3xhEzbvVZcIo-18" target="eQ8VGkHf3xhEzbvVZcIo-20">
          <mxGeometry relative="1" as="geometry" />
        </mxCell>
        <mxCell id="eQ8VGkHf3xhEzbvVZcIo-18" value="Tarea_SendLCD" style="shape=process;whiteSpace=wrap;html=1;backgroundOutline=1;" vertex="1" parent="1">
          <mxGeometry x="353" y="350" width="120" height="50" as="geometry" />
        </mxCell>
        <mxCell id="eQ8VGkHf3xhEzbvVZcIo-23" value="" style="edgeStyle=orthogonalEdgeStyle;rounded=0;orthogonalLoop=1;jettySize=auto;html=1;" edge="1" parent="1" source="eQ8VGkHf3xhEzbvVZcIo-20" target="eQ8VGkHf3xhEzbvVZcIo-22">
          <mxGeometry relative="1" as="geometry" />
        </mxCell>
        <mxCell id="eQ8VGkHf3xhEzbvVZcIo-20" value="EstPres_TareaLCD \(\leftarrow\) TareaLCD_Est2" style="rounded=0;whiteSpace=wrap;html=1;" vertex="1" parent="1">
          <mxGeometry x="353" y="430" width="120" height="60" as="geometry" />
        </mxCell>
        <mxCell id="eQ8VGkHf3xhEzbvVZcIo-22" value="Return" style="strokeWidth=2;html=1;shape=mxgraph.flowchart.terminator;whiteSpace=wrap;" vertex="1" parent="1">
          <mxGeometry x="363" y="524.5" width="100" height="60" as="geometry" />
        </mxCell>
        <mxCell id="eQ8VGkHf3xhEzbvVZcIo-26" style="edgeStyle=orthogonalEdgeStyle;rounded=0;orthogonalLoop=1;jettySize=auto;html=1;exitX=0.5;exitY=1;exitDx=0;exitDy=0;exitPerimeter=0;entryX=0.5;entryY=0;entryDx=0;entryDy=0;" edge="1" parent="1" source="eQ8VGkHf3xhEzbvVZcIo-24" target="eQ8VGkHf3xhEzbvVZcIo-25">
          <mxGeometry relative="1" as="geometry" />
        </mxCell>
        <mxCell id="eQ8VGkHf3xhEzbvVZcIo-24" value="TareaLCD_Est2" style="strokeWidth=2;html=1;shape=mxgraph.flowchart.terminator;whiteSpace=wrap;" vertex="1" parent="1">
          <mxGeometry x="281" y="620" width="100" height="60" as="geometry" />
        </mxCell>
        <mxCell id="eQ8VGkHf3xhEzbvVZcIo-29" style="edgeStyle=orthogonalEdgeStyle;rounded=0;orthogonalLoop=1;jettySize=auto;html=1;exitX=0;exitY=0.5;exitDx=0;exitDy=0;entryX=0.5;entryY=0;entryDx=0;entryDy=0;" edge="1" parent="1" source="eQ8VGkHf3xhEzbvVZcIo-25" target="eQ8VGkHf3xhEzbvVZcIo-28">
          <mxGeometry relative="1" as="geometry" />
        </mxCell>
        <mxCell id="eQ8VGkHf3xhEzbvVZcIo-31" value="SI" style="edgeLabel;html=1;align=center;verticalAlign=middle;resizable=0;points=[];" vertex="1" connectable="0" parent="eQ8VGkHf3xhEzbvVZcIo-29">
          <mxGeometry x="-0.4506" relative="1" as="geometry">
            <mxPoint as="offset" />
          </mxGeometry>
        </mxCell>
        <mxCell id="eQ8VGkHf3xhEzbvVZcIo-49" value="" style="edgeStyle=orthogonalEdgeStyle;rounded=0;orthogonalLoop=1;jettySize=auto;html=1;" edge="1" parent="1" source="eQ8VGkHf3xhEzbvVZcIo-25" target="eQ8VGkHf3xhEzbvVZcIo-32">
          <mxGeometry relative="1" as="geometry" />
        </mxCell>
        <mxCell id="eQ8VGkHf3xhEzbvVZcIo-25" value="FinSendLCD = 0" style="shape=hexagon;perimeter=hexagonPerimeter2;whiteSpace=wrap;html=1;fixedSize=1;" vertex="1" parent="1">
          <mxGeometry x="266" y="710" width="130" height="50" as="geometry" />
        </mxCell>
        <mxCell id="eQ8VGkHf3xhEzbvVZcIo-38" style="edgeStyle=orthogonalEdgeStyle;rounded=0;orthogonalLoop=1;jettySize=auto;html=1;exitX=1;exitY=0.5;exitDx=0;exitDy=0;" edge="1" parent="1" source="eQ8VGkHf3xhEzbvVZcIo-27" target="eQ8VGkHf3xhEzbvVZcIo-37">
          <mxGeometry relative="1" as="geometry" />
        </mxCell>
        <mxCell id="eQ8VGkHf3xhEzbvVZcIo-27" value="Tarea_SendLCD" style="shape=process;whiteSpace=wrap;html=1;backgroundOutline=1;" vertex="1" parent="1">
          <mxGeometry x="18" y="1080" width="120" height="50" as="geometry" />
        </mxCell>
        <mxCell id="eQ8VGkHf3xhEzbvVZcIo-30" value="" style="edgeStyle=orthogonalEdgeStyle;rounded=0;orthogonalLoop=1;jettySize=auto;html=1;" edge="1" parent="1" source="eQ8VGkHf3xhEzbvVZcIo-28" target="eQ8VGkHf3xhEzbvVZcIo-27">
          <mxGeometry relative="1" as="geometry" />
        </mxCell>
        <mxCell id="eQ8VGkHf3xhEzbvVZcIo-28" value="" style="ellipse;whiteSpace=wrap;html=1;aspect=fixed;" vertex="1" parent="1">
          <mxGeometry x="63" y="1000" width="30" height="30" as="geometry" />
        </mxCell>
        <mxCell id="eQ8VGkHf3xhEzbvVZcIo-50" value="" style="edgeStyle=orthogonalEdgeStyle;rounded=0;orthogonalLoop=1;jettySize=auto;html=1;" edge="1" parent="1" source="eQ8VGkHf3xhEzbvVZcIo-32" target="eQ8VGkHf3xhEzbvVZcIo-33">
          <mxGeometry relative="1" as="geometry" />
        </mxCell>
        <mxCell id="eQ8VGkHf3xhEzbvVZcIo-32" value="FinSendLCD \(\leftarrow\) 0&lt;br&gt;RS \(\leftarrow\) 1" style="rounded=0;whiteSpace=wrap;html=1;" vertex="1" parent="1">
          <mxGeometry x="271" y="790" width="120" height="60" as="geometry" />
        </mxCell>
        <mxCell id="eQ8VGkHf3xhEzbvVZcIo-52" style="edgeStyle=orthogonalEdgeStyle;rounded=0;orthogonalLoop=1;jettySize=auto;html=1;exitX=0.5;exitY=1;exitDx=0;exitDy=0;entryX=0.5;entryY=0;entryDx=0;entryDy=0;" edge="1" parent="1" source="eQ8VGkHf3xhEzbvVZcIo-33" target="eQ8VGkHf3xhEzbvVZcIo-34">
          <mxGeometry relative="1" as="geometry" />
        </mxCell>
        <mxCell id="eQ8VGkHf3xhEzbvVZcIo-33" value="K \(\leftarrow\) (Punt_LCD)&lt;br&gt;CharLCD&amp;nbsp; \(\leftarrow\) ((K))&lt;br&gt;K \(\leftarrow\) (K) +1&lt;br&gt;Punt_LCD \(\leftarrow\) (K)" style="rounded=0;whiteSpace=wrap;html=1;" vertex="1" parent="1">
          <mxGeometry x="271" y="890" width="120" height="70" as="geometry" />
        </mxCell>
        <mxCell id="eQ8VGkHf3xhEzbvVZcIo-35" style="edgeStyle=orthogonalEdgeStyle;rounded=0;orthogonalLoop=1;jettySize=auto;html=1;exitX=0;exitY=0.5;exitDx=0;exitDy=0;entryX=1;entryY=0.5;entryDx=0;entryDy=0;" edge="1" parent="1" source="eQ8VGkHf3xhEzbvVZcIo-34" target="eQ8VGkHf3xhEzbvVZcIo-28">
          <mxGeometry relative="1" as="geometry" />
        </mxCell>
        <mxCell id="eQ8VGkHf3xhEzbvVZcIo-36" value="NO" style="edgeLabel;html=1;align=center;verticalAlign=middle;resizable=0;points=[];" vertex="1" connectable="0" parent="eQ8VGkHf3xhEzbvVZcIo-35">
          <mxGeometry x="-0.0968" y="1" relative="1" as="geometry">
            <mxPoint as="offset" />
          </mxGeometry>
        </mxCell>
        <mxCell id="eQ8VGkHf3xhEzbvVZcIo-40" style="edgeStyle=orthogonalEdgeStyle;rounded=0;orthogonalLoop=1;jettySize=auto;html=1;exitX=1;exitY=0.5;exitDx=0;exitDy=0;entryX=0.5;entryY=0;entryDx=0;entryDy=0;" edge="1" parent="1" source="eQ8VGkHf3xhEzbvVZcIo-34" target="eQ8VGkHf3xhEzbvVZcIo-39">
          <mxGeometry relative="1" as="geometry">
            <Array as="points">
              <mxPoint x="440" y="1015" />
              <mxPoint x="440" y="680" />
              <mxPoint x="645" y="680" />
            </Array>
          </mxGeometry>
        </mxCell>
        <mxCell id="eQ8VGkHf3xhEzbvVZcIo-34" value="\( \overline{(CharLCD)}\) \(\cdot\) $FF = 0" style="shape=hexagon;perimeter=hexagonPerimeter2;whiteSpace=wrap;html=1;fixedSize=1;" vertex="1" parent="1">
          <mxGeometry x="248" y="990" width="166" height="50" as="geometry" />
        </mxCell>
        <mxCell id="eQ8VGkHf3xhEzbvVZcIo-37" value="Return" style="strokeWidth=2;html=1;shape=mxgraph.flowchart.terminator;whiteSpace=wrap;" vertex="1" parent="1">
          <mxGeometry x="281" y="1075" width="100" height="60" as="geometry" />
        </mxCell>
        <mxCell id="eQ8VGkHf3xhEzbvVZcIo-44" style="edgeStyle=orthogonalEdgeStyle;rounded=0;orthogonalLoop=1;jettySize=auto;html=1;exitX=0;exitY=0.5;exitDx=0;exitDy=0;" edge="1" parent="1" source="eQ8VGkHf3xhEzbvVZcIo-39" target="eQ8VGkHf3xhEzbvVZcIo-43">
          <mxGeometry relative="1" as="geometry" />
        </mxCell>
        <mxCell id="eQ8VGkHf3xhEzbvVZcIo-45" value="NO" style="edgeLabel;html=1;align=center;verticalAlign=middle;resizable=0;points=[];" vertex="1" connectable="0" parent="eQ8VGkHf3xhEzbvVZcIo-44">
          <mxGeometry x="-0.1704" y="-1" relative="1" as="geometry">
            <mxPoint as="offset" />
          </mxGeometry>
        </mxCell>
        <mxCell id="eQ8VGkHf3xhEzbvVZcIo-46" style="edgeStyle=orthogonalEdgeStyle;rounded=0;orthogonalLoop=1;jettySize=auto;html=1;exitX=1;exitY=0.5;exitDx=0;exitDy=0;" edge="1" parent="1" source="eQ8VGkHf3xhEzbvVZcIo-39" target="eQ8VGkHf3xhEzbvVZcIo-42">
          <mxGeometry relative="1" as="geometry" />
        </mxCell>
        <mxCell id="eQ8VGkHf3xhEzbvVZcIo-39" value="Second_Line&amp;nbsp; = 1" style="shape=hexagon;perimeter=hexagonPerimeter2;whiteSpace=wrap;html=1;fixedSize=1;" vertex="1" parent="1">
          <mxGeometry x="580" y="720" width="130" height="50" as="geometry" />
        </mxCell>
        <mxCell id="eQ8VGkHf3xhEzbvVZcIo-56" style="edgeStyle=orthogonalEdgeStyle;rounded=0;orthogonalLoop=1;jettySize=auto;html=1;exitX=0.5;exitY=1;exitDx=0;exitDy=0;entryX=1;entryY=0.5;entryDx=0;entryDy=0;" edge="1" parent="1" source="eQ8VGkHf3xhEzbvVZcIo-42" target="eQ8VGkHf3xhEzbvVZcIo-54">
          <mxGeometry relative="1" as="geometry" />
        </mxCell>
        <mxCell id="eQ8VGkHf3xhEzbvVZcIo-42" value="Second_LIne \(\leftarrow\) 0&lt;br&gt;LCD_OK \(\leftarrow\) 1" style="rounded=0;whiteSpace=wrap;html=1;" vertex="1" parent="1">
          <mxGeometry x="690" y="800" width="120" height="60" as="geometry" />
        </mxCell>
        <mxCell id="eQ8VGkHf3xhEzbvVZcIo-55" style="edgeStyle=orthogonalEdgeStyle;rounded=0;orthogonalLoop=1;jettySize=auto;html=1;exitX=0.5;exitY=1;exitDx=0;exitDy=0;entryX=0;entryY=0.5;entryDx=0;entryDy=0;" edge="1" parent="1" source="eQ8VGkHf3xhEzbvVZcIo-43" target="eQ8VGkHf3xhEzbvVZcIo-54">
          <mxGeometry relative="1" as="geometry" />
        </mxCell>
        <mxCell id="eQ8VGkHf3xhEzbvVZcIo-43" value="Second_LIne \(\leftarrow\) 1" style="rounded=0;whiteSpace=wrap;html=1;" vertex="1" parent="1">
          <mxGeometry x="490" y="810" width="120" height="40" as="geometry" />
        </mxCell>
        <mxCell id="eQ8VGkHf3xhEzbvVZcIo-48" value="EstPres_TareaLCD \(\leftarrow\) TareaLCD_Est2" style="rounded=0;whiteSpace=wrap;html=1;" vertex="1" parent="1">
          <mxGeometry x="590" y="950" width="120" height="60" as="geometry" />
        </mxCell>
        <mxCell id="eQ8VGkHf3xhEzbvVZcIo-53" style="edgeStyle=orthogonalEdgeStyle;rounded=0;orthogonalLoop=1;jettySize=auto;html=1;exitX=0.5;exitY=1;exitDx=0;exitDy=0;entryX=1;entryY=0.5;entryDx=0;entryDy=0;entryPerimeter=0;" edge="1" parent="1" source="eQ8VGkHf3xhEzbvVZcIo-48" target="eQ8VGkHf3xhEzbvVZcIo-37">
          <mxGeometry relative="1" as="geometry" />
        </mxCell>
        <mxCell id="eQ8VGkHf3xhEzbvVZcIo-57" style="edgeStyle=orthogonalEdgeStyle;rounded=0;orthogonalLoop=1;jettySize=auto;html=1;exitX=0.5;exitY=1;exitDx=0;exitDy=0;entryX=0.5;entryY=0;entryDx=0;entryDy=0;" edge="1" parent="1" source="eQ8VGkHf3xhEzbvVZcIo-54" target="eQ8VGkHf3xhEzbvVZcIo-48">
          <mxGeometry relative="1" as="geometry" />
        </mxCell>
        <mxCell id="eQ8VGkHf3xhEzbvVZcIo-54" value="" style="ellipse;whiteSpace=wrap;html=1;aspect=fixed;" vertex="1" parent="1">
          <mxGeometry x="635" y="890" width="30" height="30" as="geometry" />
        </mxCell>
      </root>
    </mxGraphModel>
  </diagram>
</mxfile>
